<mxfile host="65bd71144e">
    <diagram name="Page-1" id="pNir7j2uW-yYh-nDzZ9V">
        <mxGraphModel dx="2587" dy="2266" grid="1" gridSize="10" guides="1" tooltips="1" connect="1" arrows="1" fold="1" page="1" pageScale="1" pageWidth="850" pageHeight="1100" math="0" shadow="0">
            <root>
                <mxCell id="0"/>
                <mxCell id="1" parent="0"/>
                <mxCell id="3f7Ae0UXwW55a-OWg5UF-56" value="" style="rounded=1;whiteSpace=wrap;html=1;container=0;" parent="1" vertex="1">
                    <mxGeometry x="650" y="-340" width="1070" height="1080" as="geometry"/>
                </mxCell>
                <mxCell id="3f7Ae0UXwW55a-OWg5UF-234" style="edgeStyle=orthogonalEdgeStyle;rounded=0;orthogonalLoop=1;jettySize=auto;html=1;exitX=0;exitY=0.5;exitDx=0;exitDy=0;entryX=1;entryY=0.5;entryDx=0;entryDy=0;" parent="1" source="3f7Ae0UXwW55a-OWg5UF-219" target="3f7Ae0UXwW55a-OWg5UF-212" edge="1">
                    <mxGeometry relative="1" as="geometry"/>
                </mxCell>
                <mxCell id="3f7Ae0UXwW55a-OWg5UF-225" style="edgeStyle=orthogonalEdgeStyle;rounded=0;orthogonalLoop=1;jettySize=auto;html=1;exitX=0;exitY=0.75;exitDx=0;exitDy=0;entryX=1;entryY=0.5;entryDx=0;entryDy=0;" parent="1" source="3f7Ae0UXwW55a-OWg5UF-203" target="3f7Ae0UXwW55a-OWg5UF-101" edge="1">
                    <mxGeometry relative="1" as="geometry"/>
                </mxCell>
                <mxCell id="3f7Ae0UXwW55a-OWg5UF-203" value="" style="rounded=1;whiteSpace=wrap;html=1;container=0;glass=0;dashed=1;dashPattern=8 8;" parent="1" vertex="1">
                    <mxGeometry x="1047" y="-300" width="660" height="990" as="geometry"/>
                </mxCell>
                <mxCell id="3f7Ae0UXwW55a-OWg5UF-198" value="" style="rounded=1;whiteSpace=wrap;html=1;container=0;glass=0;dashed=1;dashPattern=8 8;" parent="1" vertex="1">
                    <mxGeometry x="1077" y="550" width="600" height="90" as="geometry"/>
                </mxCell>
                <mxCell id="3f7Ae0UXwW55a-OWg5UF-195" value="" style="rounded=1;whiteSpace=wrap;html=1;container=0;glass=0;dashed=1;dashPattern=8 8;" parent="1" vertex="1">
                    <mxGeometry x="1077" y="140" width="600" height="165" as="geometry"/>
                </mxCell>
                <mxCell id="3f7Ae0UXwW55a-OWg5UF-193" value="" style="rounded=1;whiteSpace=wrap;html=1;container=0;glass=0;dashed=1;dashPattern=8 8;" parent="1" vertex="1">
                    <mxGeometry x="1077" y="-10" width="600" height="70" as="geometry"/>
                </mxCell>
                <mxCell id="3f7Ae0UXwW55a-OWg5UF-191" value="" style="rounded=1;whiteSpace=wrap;html=1;container=0;glass=0;dashed=1;dashPattern=8 8;" parent="1" vertex="1">
                    <mxGeometry x="1067" y="-280" width="613" height="260" as="geometry"/>
                </mxCell>
                <mxCell id="3f7Ae0UXwW55a-OWg5UF-208" style="edgeStyle=orthogonalEdgeStyle;rounded=0;orthogonalLoop=1;jettySize=auto;html=1;exitX=1;exitY=0.5;exitDx=0;exitDy=0;" parent="1" source="3f7Ae0UXwW55a-OWg5UF-4" target="3f7Ae0UXwW55a-OWg5UF-56" edge="1">
                    <mxGeometry relative="1" as="geometry"/>
                </mxCell>
                <mxCell id="3f7Ae0UXwW55a-OWg5UF-4" value="" style="rounded=1;whiteSpace=wrap;html=1;" parent="1" vertex="1">
                    <mxGeometry x="117" y="85" width="470" height="230" as="geometry"/>
                </mxCell>
                <mxCell id="3f7Ae0UXwW55a-OWg5UF-5" value="Conv2d for G(H, W, 6, 6, dim = HW)" style="rounded=0;whiteSpace=wrap;html=1;strokeColor=default;align=center;verticalAlign=middle;fontFamily=Helvetica;fontSize=12;fontColor=default;fillColor=default;" parent="1" vertex="1">
                    <mxGeometry x="130" y="225" width="120" height="60" as="geometry"/>
                </mxCell>
                <mxCell id="3f7Ae0UXwW55a-OWg5UF-6" value="Conv2d for V(H, W, 6, dim = HW)" style="rounded=0;whiteSpace=wrap;html=1;strokeColor=default;align=center;verticalAlign=middle;fontFamily=Helvetica;fontSize=12;fontColor=default;fillColor=default;" parent="1" vertex="1">
                    <mxGeometry x="280" y="225" width="120" height="60" as="geometry"/>
                </mxCell>
                <mxCell id="3f7Ae0UXwW55a-OWg5UF-7" value="lingalog.Solve(G, V)" style="rounded=0;whiteSpace=wrap;html=1;strokeColor=default;align=center;verticalAlign=middle;fontFamily=Helvetica;fontSize=12;fontColor=default;fillColor=default;" parent="1" vertex="1">
                    <mxGeometry x="430" y="225" width="120" height="60" as="geometry"/>
                </mxCell>
                <mxCell id="3f7Ae0UXwW55a-OWg5UF-39" value="Mul(C, Abb)" style="rounded=0;whiteSpace=wrap;html=1;strokeColor=default;align=center;verticalAlign=middle;fontFamily=Helvetica;fontSize=12;fontColor=default;fillColor=default;" parent="1" vertex="1">
                    <mxGeometry x="207.5" y="135" width="120" height="60" as="geometry"/>
                </mxCell>
                <mxCell id="3f7Ae0UXwW55a-OWg5UF-40" value="Mul(Cf, Ab)" style="rounded=0;whiteSpace=wrap;html=1;strokeColor=default;align=center;verticalAlign=middle;fontFamily=Helvetica;fontSize=12;fontColor=default;fillColor=default;" parent="1" vertex="1">
                    <mxGeometry x="362.5" y="135" width="120" height="60" as="geometry"/>
                </mxCell>
                <mxCell id="3f7Ae0UXwW55a-OWg5UF-41" value="Ploy Expansion" style="text;strokeColor=none;align=center;fillColor=none;verticalAlign=middle;rounded=0;strokeWidth=24;rotation=0;labelBackgroundColor=none;fontColor=default;whiteSpace=wrap;textShadow=0;labelBorderColor=none;fontStyle=3;fontSize=24;" parent="1" vertex="1">
                    <mxGeometry x="240" y="85" width="205" height="60" as="geometry"/>
                </mxCell>
                <mxCell id="3f7Ae0UXwW55a-OWg5UF-226" style="edgeStyle=orthogonalEdgeStyle;rounded=0;orthogonalLoop=1;jettySize=auto;html=1;exitX=0.5;exitY=0;exitDx=0;exitDy=0;entryX=0.5;entryY=1;entryDx=0;entryDy=0;" parent="1" source="3f7Ae0UXwW55a-OWg5UF-101" target="3f7Ae0UXwW55a-OWg5UF-157" edge="1">
                    <mxGeometry relative="1" as="geometry"/>
                </mxCell>
                <mxCell id="3f7Ae0UXwW55a-OWg5UF-101" value="j++" style="rounded=0;whiteSpace=wrap;html=1;strokeColor=default;align=center;verticalAlign=middle;fontFamily=Helvetica;fontSize=12;fontColor=default;fillColor=default;" parent="1" vertex="1">
                    <mxGeometry x="847.5" y="422" width="120" height="40" as="geometry"/>
                </mxCell>
                <mxCell id="3f7Ae0UXwW55a-OWg5UF-206" style="edgeStyle=orthogonalEdgeStyle;rounded=0;orthogonalLoop=1;jettySize=auto;html=1;exitX=1;exitY=0.5;exitDx=0;exitDy=0;entryX=0;entryY=0.5;entryDx=0;entryDy=0;" parent="1" source="3f7Ae0UXwW55a-OWg5UF-64" target="3f7Ae0UXwW55a-OWg5UF-157" edge="1">
                    <mxGeometry relative="1" as="geometry"/>
                </mxCell>
                <mxCell id="3f7Ae0UXwW55a-OWg5UF-64" value="j = 0" style="rounded=0;whiteSpace=wrap;html=1;container=0;" parent="1" vertex="1">
                    <mxGeometry x="680" y="165" width="120" height="60" as="geometry"/>
                </mxCell>
                <mxCell id="3f7Ae0UXwW55a-OWg5UF-77" value="Iterative Refinement" style="text;align=center;verticalAlign=middle;rounded=0;strokeWidth=12;rotation=0;labelBackgroundColor=none;whiteSpace=wrap;textShadow=0;labelBorderColor=none;fontSize=24;fontStyle=3;container=0;" parent="1" vertex="1">
                    <mxGeometry x="690" y="-260" width="290" height="130" as="geometry"/>
                </mxCell>
                <mxCell id="3f7Ae0UXwW55a-OWg5UF-204" style="edgeStyle=orthogonalEdgeStyle;rounded=0;orthogonalLoop=1;jettySize=auto;html=1;exitX=1;exitY=0.5;exitDx=0;exitDy=0;" parent="1" source="3f7Ae0UXwW55a-OWg5UF-157" target="3f7Ae0UXwW55a-OWg5UF-203" edge="1">
                    <mxGeometry relative="1" as="geometry"/>
                </mxCell>
                <mxCell id="3f7Ae0UXwW55a-OWg5UF-209" value="Y" style="edgeLabel;html=1;align=center;verticalAlign=middle;resizable=0;points=[];" parent="3f7Ae0UXwW55a-OWg5UF-204" connectable="0" vertex="1">
                    <mxGeometry x="-0.2436" y="-4" relative="1" as="geometry">
                        <mxPoint y="-4" as="offset"/>
                    </mxGeometry>
                </mxCell>
                <mxCell id="3f7Ae0UXwW55a-OWg5UF-227" style="edgeStyle=orthogonalEdgeStyle;rounded=0;orthogonalLoop=1;jettySize=auto;html=1;exitX=0.5;exitY=0;exitDx=0;exitDy=0;entryX=0.5;entryY=1;entryDx=0;entryDy=0;" parent="1" source="3f7Ae0UXwW55a-OWg5UF-157" target="3f7Ae0UXwW55a-OWg5UF-219" edge="1">
                    <mxGeometry relative="1" as="geometry"/>
                </mxCell>
                <mxCell id="3f7Ae0UXwW55a-OWg5UF-228" value="N" style="edgeLabel;html=1;align=center;verticalAlign=middle;resizable=0;points=[];" parent="3f7Ae0UXwW55a-OWg5UF-227" connectable="0" vertex="1">
                    <mxGeometry x="0.0543" relative="1" as="geometry">
                        <mxPoint y="-1" as="offset"/>
                    </mxGeometry>
                </mxCell>
                <mxCell id="3f7Ae0UXwW55a-OWg5UF-157" value="j &amp;lt; 2" style="rhombus;whiteSpace=wrap;html=1;container=0;fillColor=#fff2cc;strokeColor=#d6b656;" parent="1" vertex="1">
                    <mxGeometry x="820" y="155" width="175" height="80" as="geometry"/>
                </mxCell>
                <mxCell id="3f7Ae0UXwW55a-OWg5UF-160" value="ATA = ST @ A_T @ A @S" style="rounded=0;whiteSpace=wrap;html=1;strokeColor=default;align=center;verticalAlign=middle;fontFamily=Helvetica;fontSize=12;fontColor=default;fillColor=default;" parent="1" vertex="1">
                    <mxGeometry x="1227" y="70" width="120" height="60" as="geometry"/>
                </mxCell>
                <mxCell id="3f7Ae0UXwW55a-OWg5UF-162" value="ATb = ST @ A_T @ delB" style="rounded=0;whiteSpace=wrap;html=1;strokeColor=default;align=center;verticalAlign=middle;fontFamily=Helvetica;fontSize=12;fontColor=default;fillColor=default;" parent="1" vertex="1">
                    <mxGeometry x="1387" y="70" width="120" height="60" as="geometry"/>
                </mxCell>
                <mxCell id="3f7Ae0UXwW55a-OWg5UF-163" value="A = (A1+A2)/2 * c" style="rounded=0;whiteSpace=wrap;html=1;strokeColor=default;align=center;verticalAlign=middle;fontFamily=Helvetica;fontSize=12;fontColor=default;fillColor=default;" parent="1" vertex="1">
                    <mxGeometry x="1227" y="-10" width="120" height="60" as="geometry"/>
                </mxCell>
                <mxCell id="3f7Ae0UXwW55a-OWg5UF-164" value="delb = -1/2 * (B2-B1) * (A @ d) * c" style="rounded=0;whiteSpace=wrap;html=1;strokeColor=default;align=center;verticalAlign=middle;fontFamily=Helvetica;fontSize=12;fontColor=default;fillColor=default;" parent="1" vertex="1">
                    <mxGeometry x="1387" y="-10" width="120" height="60" as="geometry"/>
                </mxCell>
                <mxCell id="3f7Ae0UXwW55a-OWg5UF-165" value="off_img = x_ != x_2" style="rounded=0;whiteSpace=wrap;html=1;strokeColor=default;align=center;verticalAlign=middle;fontFamily=Helvetica;fontSize=12;fontColor=default;fillColor=default;" parent="1" vertex="1">
                    <mxGeometry x="1387" y="-170" width="120" height="60" as="geometry"/>
                </mxCell>
                <mxCell id="3f7Ae0UXwW55a-OWg5UF-166" value="x_ = x+ d" style="rounded=0;whiteSpace=wrap;html=1;strokeColor=default;align=center;verticalAlign=middle;fontFamily=Helvetica;fontSize=12;fontColor=default;fillColor=default;" parent="1" vertex="1">
                    <mxGeometry x="1387" y="-250" width="120" height="60" as="geometry"/>
                </mxCell>
                <mxCell id="3f7Ae0UXwW55a-OWg5UF-167" value="x = meshgrid" style="rounded=0;whiteSpace=wrap;html=1;strokeColor=default;align=center;verticalAlign=middle;fontFamily=Helvetica;fontSize=12;fontColor=default;fillColor=default;" parent="1" vertex="1">
                    <mxGeometry x="1227" y="-250" width="120" height="60" as="geometry"/>
                </mxCell>
                <mxCell id="3f7Ae0UXwW55a-OWg5UF-168" value="x2 = clamp(x)" style="rounded=0;whiteSpace=wrap;html=1;strokeColor=default;align=center;verticalAlign=middle;fontFamily=Helvetica;fontSize=12;fontColor=default;fillColor=default;" parent="1" vertex="1">
                    <mxGeometry x="1227" y="-170" width="120" height="60" as="geometry"/>
                </mxCell>
                <mxCell id="3f7Ae0UXwW55a-OWg5UF-170" value="c_ = c1(x_)" style="rounded=0;whiteSpace=wrap;html=1;strokeColor=default;align=center;verticalAlign=middle;fontFamily=Helvetica;fontSize=12;fontColor=default;fillColor=default;" parent="1" vertex="1">
                    <mxGeometry x="1227" y="-90" width="120" height="60" as="geometry"/>
                </mxCell>
                <mxCell id="3f7Ae0UXwW55a-OWg5UF-171" value="c_[off_img] = 0" style="rounded=0;whiteSpace=wrap;html=1;strokeColor=default;align=center;verticalAlign=middle;fontFamily=Helvetica;fontSize=12;fontColor=default;fillColor=default;" parent="1" vertex="1">
                    <mxGeometry x="1387" y="-90" width="120" height="60" as="geometry"/>
                </mxCell>
                <mxCell id="3f7Ae0UXwW55a-OWg5UF-196" style="edgeStyle=orthogonalEdgeStyle;rounded=0;orthogonalLoop=1;jettySize=auto;html=1;exitX=1;exitY=0.5;exitDx=0;exitDy=0;entryX=0;entryY=0.5;entryDx=0;entryDy=0;" parent="1" source="3f7Ae0UXwW55a-OWg5UF-172" target="3f7Ae0UXwW55a-OWg5UF-184" edge="1">
                    <mxGeometry relative="1" as="geometry"/>
                </mxCell>
                <mxCell id="3f7Ae0UXwW55a-OWg5UF-172" value="p_avg = lingalog.Solve(g_avg, h_avg)" style="rounded=0;whiteSpace=wrap;html=1;strokeColor=default;align=center;verticalAlign=middle;fontFamily=Helvetica;fontSize=12;fontColor=default;fillColor=default;" parent="1" vertex="1">
                    <mxGeometry x="1177" y="230" width="280" height="60" as="geometry"/>
                </mxCell>
                <mxCell id="3f7Ae0UXwW55a-OWg5UF-188" style="edgeStyle=orthogonalEdgeStyle;rounded=0;orthogonalLoop=1;jettySize=auto;html=1;exitX=0;exitY=0.5;exitDx=0;exitDy=0;" parent="1" source="3f7Ae0UXwW55a-OWg5UF-173" target="3f7Ae0UXwW55a-OWg5UF-187" edge="1">
                    <mxGeometry relative="1" as="geometry"/>
                </mxCell>
                <mxCell id="3f7Ae0UXwW55a-OWg5UF-173" value="g_avg&amp;nbsp; = Mean(ATA)" style="rounded=0;whiteSpace=wrap;html=1;strokeColor=default;align=center;verticalAlign=middle;fontFamily=Helvetica;fontSize=12;fontColor=default;fillColor=default;" parent="1" vertex="1">
                    <mxGeometry x="1227" y="150" width="120" height="60" as="geometry"/>
                </mxCell>
                <mxCell id="3f7Ae0UXwW55a-OWg5UF-174" value="h_avg = Mean(Atb)" style="rounded=0;whiteSpace=wrap;html=1;strokeColor=default;align=center;verticalAlign=middle;fontFamily=Helvetica;fontSize=12;fontColor=default;fillColor=default;" parent="1" vertex="1">
                    <mxGeometry x="1387" y="150" width="120" height="60" as="geometry"/>
                </mxCell>
                <mxCell id="3f7Ae0UXwW55a-OWg5UF-175" value="G =A_T @ A" style="rounded=0;whiteSpace=wrap;html=1;strokeColor=default;align=center;verticalAlign=middle;fontFamily=Helvetica;fontSize=12;fontColor=default;fillColor=default;" parent="1" vertex="1">
                    <mxGeometry x="1227" y="320" width="120" height="60" as="geometry"/>
                </mxCell>
                <mxCell id="3f7Ae0UXwW55a-OWg5UF-176" value="h = A_T @ delB" style="rounded=0;whiteSpace=wrap;html=1;strokeColor=default;align=center;verticalAlign=middle;fontFamily=Helvetica;fontSize=12;fontColor=default;fillColor=default;" parent="1" vertex="1">
                    <mxGeometry x="1387" y="320" width="120" height="60" as="geometry"/>
                </mxCell>
                <mxCell id="3f7Ae0UXwW55a-OWg5UF-177" value="Conv2d for G" style="rounded=0;whiteSpace=wrap;html=1;strokeColor=default;align=center;verticalAlign=middle;fontFamily=Helvetica;fontSize=12;fontColor=default;fillColor=default;" parent="1" vertex="1">
                    <mxGeometry x="1227" y="400" width="120" height="60" as="geometry"/>
                </mxCell>
                <mxCell id="3f7Ae0UXwW55a-OWg5UF-178" value="Conv2d for h" style="rounded=0;whiteSpace=wrap;html=1;strokeColor=default;align=center;verticalAlign=middle;fontFamily=Helvetica;fontSize=12;fontColor=default;fillColor=default;" parent="1" vertex="1">
                    <mxGeometry x="1387" y="400" width="120" height="60" as="geometry"/>
                </mxCell>
                <mxCell id="3f7Ae0UXwW55a-OWg5UF-181" value="G = G + mu + S" style="rounded=0;whiteSpace=wrap;html=1;strokeColor=default;align=center;verticalAlign=middle;fontFamily=Helvetica;fontSize=12;fontColor=default;fillColor=default;" parent="1" vertex="1">
                    <mxGeometry x="1227" y="480" width="120" height="60" as="geometry"/>
                </mxCell>
                <mxCell id="3f7Ae0UXwW55a-OWg5UF-182" value="h = h + mu + d_avg" style="rounded=0;whiteSpace=wrap;html=1;strokeColor=default;align=center;verticalAlign=middle;fontFamily=Helvetica;fontSize=12;fontColor=default;fillColor=default;" parent="1" vertex="1">
                    <mxGeometry x="1387" y="480" width="120" height="60" as="geometry"/>
                </mxCell>
                <mxCell id="3f7Ae0UXwW55a-OWg5UF-183" value="d = lingalog.Solve(G, V)" style="rounded=0;whiteSpace=wrap;html=1;strokeColor=default;align=center;verticalAlign=middle;fontFamily=Helvetica;fontSize=12;fontColor=default;fillColor=default;" parent="1" vertex="1">
                    <mxGeometry x="1227" y="560" width="280" height="60" as="geometry"/>
                </mxCell>
                <mxCell id="3f7Ae0UXwW55a-OWg5UF-186" style="edgeStyle=orthogonalEdgeStyle;rounded=0;orthogonalLoop=1;jettySize=auto;html=1;exitX=0.5;exitY=1;exitDx=0;exitDy=0;entryX=1;entryY=0.5;entryDx=0;entryDy=0;" parent="1" source="3f7Ae0UXwW55a-OWg5UF-184" target="3f7Ae0UXwW55a-OWg5UF-182" edge="1">
                    <mxGeometry relative="1" as="geometry"/>
                </mxCell>
                <mxCell id="3f7Ae0UXwW55a-OWg5UF-184" value="&lt;span style=&quot;color: rgb(51, 51, 51); font-weight: 700;&quot;&gt;&lt;font style=&quot;font-size: 12px;&quot;&gt;d_avg = L(Matmul(S, pvg))&lt;/font&gt;&lt;/span&gt;" style="rounded=0;whiteSpace=wrap;html=1;strokeColor=default;align=center;verticalAlign=middle;fontFamily=Helvetica;fontSize=12;fontColor=default;fillColor=default;" parent="1" vertex="1">
                    <mxGeometry x="1487" y="230" width="120" height="60" as="geometry"/>
                </mxCell>
                <mxCell id="3f7Ae0UXwW55a-OWg5UF-189" style="edgeStyle=orthogonalEdgeStyle;rounded=0;orthogonalLoop=1;jettySize=auto;html=1;exitX=0.5;exitY=1;exitDx=0;exitDy=0;entryX=0;entryY=0.5;entryDx=0;entryDy=0;" parent="1" source="3f7Ae0UXwW55a-OWg5UF-187" target="3f7Ae0UXwW55a-OWg5UF-181" edge="1">
                    <mxGeometry relative="1" as="geometry"/>
                </mxCell>
                <mxCell id="3f7Ae0UXwW55a-OWg5UF-187" value="&lt;span style=&quot;color: rgb(51, 51, 51); font-weight: 700;&quot;&gt;&lt;font style=&quot;font-size: 12px;&quot;&gt;mu = trace(G)&lt;/font&gt;&lt;/span&gt;" style="rounded=0;whiteSpace=wrap;html=1;strokeColor=default;align=center;verticalAlign=middle;fontFamily=Helvetica;fontSize=12;fontColor=default;fillColor=default;" parent="1" vertex="1">
                    <mxGeometry x="1067" y="400" width="120" height="60" as="geometry"/>
                </mxCell>
                <mxCell id="3f7Ae0UXwW55a-OWg5UF-192" value="displancement field" style="text;strokeColor=none;align=center;fillColor=#f5f5f5;verticalAlign=middle;rounded=0;strokeWidth=12;rotation=-90;labelBackgroundColor=none;fontColor=#333333;whiteSpace=wrap;textShadow=0;labelBorderColor=none;fontSize=24;fontStyle=3;container=0;" parent="1" vertex="1">
                    <mxGeometry x="1022" y="-180" width="180" height="60" as="geometry"/>
                </mxCell>
                <mxCell id="3f7Ae0UXwW55a-OWg5UF-194" value="Add &#10;Certitanty" style="text;strokeColor=none;align=center;fillColor=#f5f5f5;verticalAlign=middle;rounded=0;strokeWidth=12;rotation=0;labelBackgroundColor=none;fontColor=#333333;whiteSpace=wrap;textShadow=0;labelBorderColor=none;fontSize=24;fontStyle=3;container=0;" parent="1" vertex="1">
                    <mxGeometry x="1087" y="-5" width="100" height="60" as="geometry"/>
                </mxCell>
                <mxCell id="3f7Ae0UXwW55a-OWg5UF-197" value="Cal&#10;Global Warp" style="text;align=center;verticalAlign=middle;rounded=0;strokeWidth=12;rotation=0;labelBackgroundColor=none;whiteSpace=wrap;textShadow=0;labelBorderColor=none;fontSize=18;fontStyle=3;container=0;" parent="1" vertex="1">
                    <mxGeometry x="1527" y="150" width="140" height="60" as="geometry"/>
                </mxCell>
                <mxCell id="3f7Ae0UXwW55a-OWg5UF-199" value="Refine&#10;Estimation" style="text;align=center;verticalAlign=middle;rounded=0;strokeWidth=12;rotation=0;labelBackgroundColor=none;whiteSpace=wrap;textShadow=0;labelBorderColor=none;fontSize=18;fontStyle=3;container=0;" parent="1" vertex="1">
                    <mxGeometry x="1537" y="565" width="140" height="60" as="geometry"/>
                </mxCell>
                <mxCell id="3f7Ae0UXwW55a-OWg5UF-232" style="edgeStyle=orthogonalEdgeStyle;rounded=0;orthogonalLoop=1;jettySize=auto;html=1;exitX=1;exitY=0.5;exitDx=0;exitDy=0;entryX=0;entryY=0.5;entryDx=0;entryDy=0;" parent="1" source="3f7Ae0UXwW55a-OWg5UF-211" target="3f7Ae0UXwW55a-OWg5UF-212" edge="1">
                    <mxGeometry relative="1" as="geometry"/>
                </mxCell>
                <mxCell id="3f7Ae0UXwW55a-OWg5UF-211" value="i = 0" style="rounded=0;whiteSpace=wrap;html=1;container=0;" parent="1" vertex="1">
                    <mxGeometry x="-18.5" y="-100" width="120" height="60" as="geometry"/>
                </mxCell>
                <mxCell id="3f7Ae0UXwW55a-OWg5UF-231" style="edgeStyle=orthogonalEdgeStyle;rounded=0;orthogonalLoop=1;jettySize=auto;html=1;exitX=0.5;exitY=1;exitDx=0;exitDy=0;entryX=0.5;entryY=0;entryDx=0;entryDy=0;" parent="1" source="3f7Ae0UXwW55a-OWg5UF-212" target="3f7Ae0UXwW55a-OWg5UF-4" edge="1">
                    <mxGeometry relative="1" as="geometry">
                        <mxPoint x="352" y="80" as="targetPoint"/>
                    </mxGeometry>
                </mxCell>
                <mxCell id="3f7Ae0UXwW55a-OWg5UF-233" value="Y" style="edgeLabel;html=1;align=center;verticalAlign=middle;resizable=0;points=[];" parent="3f7Ae0UXwW55a-OWg5UF-231" connectable="0" vertex="1">
                    <mxGeometry x="-0.0947" y="-1" relative="1" as="geometry">
                        <mxPoint as="offset"/>
                    </mxGeometry>
                </mxCell>
                <mxCell id="3f7Ae0UXwW55a-OWg5UF-236" style="edgeStyle=orthogonalEdgeStyle;rounded=0;orthogonalLoop=1;jettySize=auto;html=1;exitX=0.5;exitY=0;exitDx=0;exitDy=0;entryX=0.5;entryY=1;entryDx=0;entryDy=0;" parent="1" source="3f7Ae0UXwW55a-OWg5UF-212" target="3f7Ae0UXwW55a-OWg5UF-217" edge="1">
                    <mxGeometry relative="1" as="geometry"/>
                </mxCell>
                <mxCell id="3f7Ae0UXwW55a-OWg5UF-212" value="i &amp;lt;4" style="rhombus;whiteSpace=wrap;html=1;container=0;fillColor=#fff2cc;strokeColor=#d6b656;" parent="1" vertex="1">
                    <mxGeometry x="265" y="-110" width="175" height="80" as="geometry"/>
                </mxCell>
                <mxCell id="3f7Ae0UXwW55a-OWg5UF-217" value="end" style="ellipse;whiteSpace=wrap;html=1;container=0;fillColor=#d5e8d4;strokeColor=#82b366;" parent="1" vertex="1">
                    <mxGeometry x="292" y="-260" width="120" height="80" as="geometry"/>
                </mxCell>
                <mxCell id="3f7Ae0UXwW55a-OWg5UF-219" value="i++" style="rounded=0;whiteSpace=wrap;html=1;container=0;" parent="1" vertex="1">
                    <mxGeometry x="847.5" y="-100" width="120" height="60" as="geometry"/>
                </mxCell>
                <mxCell id="3f7Ae0UXwW55a-OWg5UF-31" value="" style="rounded=1;whiteSpace=wrap;html=1;container=0;" parent="1" vertex="1">
                    <mxGeometry x="-398" y="25" width="480" height="660" as="geometry"/>
                </mxCell>
                <mxCell id="3f7Ae0UXwW55a-OWg5UF-19" style="edgeStyle=orthogonalEdgeStyle;rounded=0;orthogonalLoop=1;jettySize=auto;html=1;exitX=0.5;exitY=1;exitDx=0;exitDy=0;entryX=0.5;entryY=0;entryDx=0;entryDy=0;" parent="1" source="3f7Ae0UXwW55a-OWg5UF-13" target="3f7Ae0UXwW55a-OWg5UF-29" edge="1">
                    <mxGeometry relative="1" as="geometry">
                        <mxPoint x="-183.00000000000045" y="635" as="targetPoint"/>
                    </mxGeometry>
                </mxCell>
                <mxCell id="3f7Ae0UXwW55a-OWg5UF-13" value="" style="rounded=1;whiteSpace=wrap;html=1;container=0;" parent="1" vertex="1">
                    <mxGeometry x="-338" y="365" width="310" height="200" as="geometry"/>
                </mxCell>
                <mxCell id="3f7Ae0UXwW55a-OWg5UF-14" value="Conv2d for GP" style="rounded=0;whiteSpace=wrap;html=1;strokeColor=default;align=center;verticalAlign=middle;fontFamily=Helvetica;fontSize=12;fontColor=default;fillColor=default;container=0;" parent="1" vertex="1">
                    <mxGeometry x="-315.5" y="385" width="120" height="30" as="geometry"/>
                </mxCell>
                <mxCell id="3f7Ae0UXwW55a-OWg5UF-15" value="Conv2d for GN" style="rounded=0;whiteSpace=wrap;html=1;strokeColor=default;align=center;verticalAlign=middle;fontFamily=Helvetica;fontSize=12;fontColor=default;fillColor=default;container=0;" parent="1" vertex="1">
                    <mxGeometry x="-170.5" y="385" width="120" height="30" as="geometry"/>
                </mxCell>
                <mxCell id="3f7Ae0UXwW55a-OWg5UF-17" value="Conv2d for CP" style="rounded=0;whiteSpace=wrap;html=1;strokeColor=default;align=center;verticalAlign=middle;fontFamily=Helvetica;fontSize=12;fontColor=default;fillColor=default;container=0;" parent="1" vertex="1">
                    <mxGeometry x="-315.5" y="425" width="120" height="30" as="geometry"/>
                </mxCell>
                <mxCell id="3f7Ae0UXwW55a-OWg5UF-18" value="Conv2d for CN" style="rounded=0;whiteSpace=wrap;html=1;strokeColor=default;align=center;verticalAlign=middle;fontFamily=Helvetica;fontSize=12;fontColor=default;fillColor=default;container=0;" parent="1" vertex="1">
                    <mxGeometry x="-170.5" y="425" width="120" height="30" as="geometry"/>
                </mxCell>
                <mxCell id="3f7Ae0UXwW55a-OWg5UF-24" style="edgeStyle=orthogonalEdgeStyle;rounded=0;orthogonalLoop=1;jettySize=auto;html=1;exitX=0.5;exitY=1;exitDx=0;exitDy=0;" parent="1" source="3f7Ae0UXwW55a-OWg5UF-20" target="3f7Ae0UXwW55a-OWg5UF-23" edge="1">
                    <mxGeometry relative="1" as="geometry"/>
                </mxCell>
                <mxCell id="3f7Ae0UXwW55a-OWg5UF-20" value="i = 0" style="rounded=0;whiteSpace=wrap;html=1;container=0;" parent="1" vertex="1">
                    <mxGeometry x="-166" y="110" width="120" height="60" as="geometry"/>
                </mxCell>
                <mxCell id="3f7Ae0UXwW55a-OWg5UF-239" style="edgeStyle=orthogonalEdgeStyle;rounded=0;orthogonalLoop=1;jettySize=auto;html=1;exitX=0.5;exitY=1;exitDx=0;exitDy=0;" parent="1" source="3f7Ae0UXwW55a-OWg5UF-21" target="3f7Ae0UXwW55a-OWg5UF-20" edge="1">
                    <mxGeometry relative="1" as="geometry"/>
                </mxCell>
                <mxCell id="3f7Ae0UXwW55a-OWg5UF-21" value="start" style="ellipse;whiteSpace=wrap;html=1;container=0;fillColor=#d5e8d4;strokeColor=#82b366;" parent="1" vertex="1">
                    <mxGeometry x="-166" y="-110" width="120" height="80" as="geometry"/>
                </mxCell>
                <mxCell id="3f7Ae0UXwW55a-OWg5UF-25" style="edgeStyle=orthogonalEdgeStyle;rounded=0;orthogonalLoop=1;jettySize=auto;html=1;exitX=0.5;exitY=1;exitDx=0;exitDy=0;entryX=0.75;entryY=0;entryDx=0;entryDy=0;" parent="1" source="3f7Ae0UXwW55a-OWg5UF-23" target="3f7Ae0UXwW55a-OWg5UF-13" edge="1">
                    <mxGeometry relative="1" as="geometry">
                        <mxPoint x="-183" y="345" as="targetPoint"/>
                    </mxGeometry>
                </mxCell>
                <mxCell id="3f7Ae0UXwW55a-OWg5UF-27" value="Y" style="edgeLabel;html=1;align=center;verticalAlign=middle;resizable=0;points=[];container=0;" parent="3f7Ae0UXwW55a-OWg5UF-25" connectable="0" vertex="1">
                    <mxGeometry x="-0.1377" y="-1" relative="1" as="geometry">
                        <mxPoint as="offset"/>
                    </mxGeometry>
                </mxCell>
                <mxCell id="3f7Ae0UXwW55a-OWg5UF-238" style="edgeStyle=orthogonalEdgeStyle;rounded=0;orthogonalLoop=1;jettySize=auto;html=1;exitX=1;exitY=0.5;exitDx=0;exitDy=0;entryX=0.5;entryY=1;entryDx=0;entryDy=0;" parent="1" source="3f7Ae0UXwW55a-OWg5UF-23" target="3f7Ae0UXwW55a-OWg5UF-211" edge="1">
                    <mxGeometry relative="1" as="geometry"/>
                </mxCell>
                <mxCell id="3f7Ae0UXwW55a-OWg5UF-241" value="N" style="edgeLabel;html=1;align=center;verticalAlign=middle;resizable=0;points=[];" parent="3f7Ae0UXwW55a-OWg5UF-238" connectable="0" vertex="1">
                    <mxGeometry x="-0.8463" relative="1" as="geometry">
                        <mxPoint as="offset"/>
                    </mxGeometry>
                </mxCell>
                <mxCell id="3f7Ae0UXwW55a-OWg5UF-23" value="i &amp;lt;4" style="rhombus;whiteSpace=wrap;html=1;container=0;fillColor=#fff2cc;strokeColor=#d6b656;" parent="1" vertex="1">
                    <mxGeometry x="-193.5" y="240" width="175" height="80" as="geometry"/>
                </mxCell>
                <mxCell id="3f7Ae0UXwW55a-OWg5UF-210" style="edgeStyle=orthogonalEdgeStyle;rounded=0;orthogonalLoop=1;jettySize=auto;html=1;exitX=0;exitY=0.5;exitDx=0;exitDy=0;entryX=0;entryY=0.5;entryDx=0;entryDy=0;" parent="1" source="3f7Ae0UXwW55a-OWg5UF-29" target="3f7Ae0UXwW55a-OWg5UF-23" edge="1">
                    <mxGeometry relative="1" as="geometry">
                        <Array as="points">
                            <mxPoint x="-373" y="635"/>
                            <mxPoint x="-373" y="280"/>
                        </Array>
                    </mxGeometry>
                </mxCell>
                <mxCell id="3f7Ae0UXwW55a-OWg5UF-29" value="i++" style="rounded=0;whiteSpace=wrap;html=1;strokeColor=default;align=center;verticalAlign=middle;fontFamily=Helvetica;fontSize=12;fontColor=default;fillColor=default;container=0;" parent="1" vertex="1">
                    <mxGeometry x="-243" y="605" width="120" height="60" as="geometry"/>
                </mxCell>
                <mxCell id="3f7Ae0UXwW55a-OWg5UF-34" value="Resize for GP" style="rounded=0;whiteSpace=wrap;html=1;strokeColor=default;align=center;verticalAlign=middle;fontFamily=Helvetica;fontSize=12;fontColor=default;fillColor=default;container=0;" parent="1" vertex="1">
                    <mxGeometry x="-315.5" y="467.86" width="120" height="30" as="geometry"/>
                </mxCell>
                <mxCell id="3f7Ae0UXwW55a-OWg5UF-35" value="Resize for GN" style="rounded=0;whiteSpace=wrap;html=1;strokeColor=default;align=center;verticalAlign=middle;fontFamily=Helvetica;fontSize=12;fontColor=default;fillColor=default;container=0;" parent="1" vertex="1">
                    <mxGeometry x="-170.5" y="467.86" width="120" height="30" as="geometry"/>
                </mxCell>
                <mxCell id="3f7Ae0UXwW55a-OWg5UF-36" value="Resize for CP" style="rounded=0;whiteSpace=wrap;html=1;strokeColor=default;align=center;verticalAlign=middle;fontFamily=Helvetica;fontSize=12;fontColor=default;fillColor=default;container=0;" parent="1" vertex="1">
                    <mxGeometry x="-315.5" y="507.86" width="120" height="30" as="geometry"/>
                </mxCell>
                <mxCell id="3f7Ae0UXwW55a-OWg5UF-37" value="Resize for CN" style="rounded=0;whiteSpace=wrap;html=1;strokeColor=default;align=center;verticalAlign=middle;fontFamily=Helvetica;fontSize=12;fontColor=default;fillColor=default;container=0;" parent="1" vertex="1">
                    <mxGeometry x="-170.5" y="507.86" width="120" height="30" as="geometry"/>
                </mxCell>
                <mxCell id="3f7Ae0UXwW55a-OWg5UF-38" value="Y" style="edgeLabel;html=1;align=center;verticalAlign=middle;resizable=0;points=[];container=0;" parent="1" connectable="0" vertex="1">
                    <mxGeometry x="-184" y="425.0028571428571" as="geometry"/>
                </mxCell>
                <mxCell id="3f7Ae0UXwW55a-OWg5UF-42" value="Image Pyramid" style="text;strokeColor=none;align=center;fillColor=#f5f5f5;verticalAlign=middle;rounded=0;strokeWidth=12;rotation=0;labelBackgroundColor=none;fontColor=#333333;whiteSpace=wrap;textShadow=0;labelBorderColor=none;fontSize=24;fontStyle=3;container=0;" parent="1" vertex="1">
                    <mxGeometry x="-375.5" y="50" width="180" height="60" as="geometry"/>
                </mxCell>
            </root>
        </mxGraphModel>
    </diagram>
</mxfile>